<?xml version="1.0" standalone="no"?>
<!DOCTYPE svg PUBLIC "-//W3C//DTD SVG 20010904//EN"
 "http://www.w3.org/TR/2001/REC-SVG-20010904/DTD/svg10.dtd">
<svg version="1.0" xmlns="http://www.w3.org/2000/svg"
 width="100.000000pt" height="100.000000pt" viewBox="0 0 100.000000 100.000000"
 preserveAspectRatio="xMidYMid meet">

<g transform="translate(0.000000,100.000000) scale(0.100000,-0.100000)"
fill="#000000" stroke="none">
<path d="M386 944 c-224 -54 -376 -287 -338 -516 62 -368 512 -515 773 -253
329 330 18 879 -435 769z m219 -39 c312 -81 418 -473 191 -701 -241 -240 -651
-107 -709 230 -50 295 226 546 518 471z"/>
<path d="M414 871 c-51 -13 -109 -45 -109 -61 0 -18 13 -17 90 11 74 26 167
23 239 -10 33 -14 53 -18 59 -12 43 43 -170 98 -279 72z"/>
<path d="M403 782 c-251 -90 -272 -432 -35 -549 81 -40 183 -40 264 0 107 53
163 144 163 267 0 85 -21 142 -74 203 -72 81 -213 117 -318 79z m212 -50 c47
-24 95 -73 121 -122 26 -49 26 -171 0 -220 -26 -49 -74 -98 -121 -123 -31 -17
-58 -22 -115 -22 -85 0 -133 20 -186 77 -54 57 -69 95 -69 178 0 83 15 121 69
178 31 34 70 58 116 73 41 14 142 3 185 -19z"/>
<path d="M530 636 c-4 -13 -14 -43 -21 -67 l-12 -44 -16 55 -17 55 -53 3 c-30
2 -58 -1 -63 -6 -6 -6 -2 -37 11 -81 12 -39 30 -103 42 -141 l20 -71 77 3 76
3 43 145 c24 80 41 151 38 158 -3 7 -25 12 -60 12 -49 0 -57 -3 -65 -24z m80
-23 c0 -5 -15 -57 -33 -118 l-33 -110 -47 -3 -46 -3 -21 73 c-12 40 -25 86
-31 102 -13 42 -12 46 15 46 18 0 25 -7 30 -30 3 -17 13 -56 22 -86 22 -77 41
-70 69 27 30 106 32 109 55 109 11 0 20 -3 20 -7z"/>
<path d="M125 510 c-13 -22 7 -120 36 -179 30 -60 127 -161 154 -161 34 0 22
25 -33 76 -69 62 -108 131 -119 213 -8 53 -24 74 -38 51z"/>
<path d="M846 508 c-2 -7 -7 -33 -10 -58 -10 -73 -51 -144 -118 -204 -55 -51
-67 -76 -33 -76 29 0 125 102 156 166 33 70 45 173 22 181 -7 3 -15 -1 -17 -9z"/>
</g>
</svg>
