<?xml version="1.0" standalone="no"?>
<!DOCTYPE svg PUBLIC "-//W3C//DTD SVG 20010904//EN"
 "http://www.w3.org/TR/2001/REC-SVG-20010904/DTD/svg10.dtd">
<svg version="1.0" xmlns="http://www.w3.org/2000/svg"
 width="50.000000pt" height="50.000000pt" viewBox="0 0 50.000000 50.000000"
 preserveAspectRatio="xMidYMid meet">

<g transform="translate(0.000000,50.000000) scale(0.100000,-0.100000)"
fill="#000000" stroke="none">
<path d="M205 471 c-178 -45 -239 -261 -108 -382 90 -84 216 -84 306 0 115
106 85 293 -58 364 -39 19 -102 27 -140 18z m119 -31 c14 -5 26 -17 26 -26 0
-11 -5 -14 -17 -9 -41 17 -85 22 -115 15 -18 -4 -41 -11 -50 -15 -13 -5 -18
-2 -18 9 0 9 10 21 23 26 30 12 120 12 151 0z m4 -60 c130 -79 74 -280 -78
-280 -152 0 -208 201 -78 280 43 26 113 26 156 0z m-255 -137 c3 -10 8 -30 11
-46 4 -15 23 -46 43 -68 35 -39 38 -64 5 -43 -38 24 -74 83 -79 128 -4 29 -2
46 5 46 6 0 13 -8 15 -17z m374 -29 c-5 -45 -41 -104 -79 -128 -33 -21 -30 4
5 43 20 22 39 53 43 68 12 54 15 63 26 63 7 0 9 -17 5 -46z"/>
<path d="M216 370 c-118 -36 -118 -206 1 -239 92 -26 178 60 152 153 -10 35
-59 86 -84 86 -7 0 -19 2 -27 4 -7 2 -26 0 -42 -4z m103 -67 c0 -10 -8 -40
-18 -68 -16 -46 -20 -50 -52 -53 -34 -3 -35 -2 -52 51 -22 70 -22 77 7 77 19
0 26 -7 31 -30 8 -36 21 -31 30 10 5 23 12 30 31 30 16 0 24 -5 23 -17z"/>
</g>
</svg>
