<?xml version="1.0" standalone="no"?>
<!DOCTYPE svg PUBLIC "-//W3C//DTD SVG 20010904//EN"
 "http://www.w3.org/TR/2001/REC-SVG-20010904/DTD/svg10.dtd">
<svg version="1.0" xmlns="http://www.w3.org/2000/svg"
 width="50.000000pt" height="50.000000pt" viewBox="0 0 50.000000 50.000000"
 preserveAspectRatio="xMidYMid meet">

<g transform="translate(0.000000,50.000000) scale(0.100000,-0.100000)"
fill="#000000" stroke="none">
<path d="M155 456 c-60 -28 -87 -56 -114 -116 -36 -79 -19 -183 42 -249 33
-36 115 -71 167 -71 52 0 134 35 167 71 34 37 63 110 63 159 0 52 -35 134 -71
167 -37 34 -110 63 -159 63 -27 0 -65 -10 -95 -24z m158 -17 c20 -5 37 -15 37
-21 0 -6 -10 -7 -27 -2 -16 5 -48 8 -73 8 -25 0 -57 -3 -72 -8 -19 -5 -28 -4
-28 3 0 25 101 38 163 20z m7 -59 c45 -23 80 -80 80 -130 0 -76 -74 -150 -151
-150 -46 0 -108 39 -130 82 -37 72 -14 151 57 194 48 29 92 30 144 4z m-242
-176 c8 -29 26 -60 48 -82 38 -38 38 -54 0 -29 -31 21 -63 73 -71 120 -10 53
8 46 23 -9z m367 9 c-8 -47 -40 -99 -71 -120 -38 -25 -38 -9 0 29 22 22 40 53
48 82 15 55 33 62 23 9z"/>
<path d="M190 363 c-95 -49 -87 -193 13 -232 105 -40 206 61 166 166 -27 70
-111 101 -179 66z m130 -47 c0 -2 -9 -34 -21 -71 -20 -64 -21 -66 -51 -63 -32
3 -42 19 -62 101 -6 25 -4 28 15 25 15 -2 26 -14 35 -38 8 -24 14 -30 18 -20
3 8 10 27 15 43 7 17 18 27 31 27 11 0 20 -2 20 -4z"/>
</g>
</svg>
